<?xml version="1.0" encoding="utf-8"?>
<!-- Generator: Adobe Illustrator 17.0.0, SVG Export Plug-In . SVG Version: 6.00 Build 0)  -->
<!DOCTYPE svg PUBLIC "-//W3C//DTD SVG 1.1//EN" "http://www.w3.org/Graphics/SVG/1.1/DTD/svg11.dtd">
<svg version="1.1" id="Layer_1" xmlns="http://www.w3.org/2000/svg" xmlns:xlink="http://www.w3.org/1999/xlink" x="0px" y="0px"
	 width="193px" height="63px" viewBox="0 0 193 63" enable-background="new 0 0 193 63" xml:space="preserve">
<g>
	<path d="M178.579,31.558c0,14.394-2.782,30.277-13.471,30.277c-10.675,0-13.467-15.883-13.467-30.277
		c0-14.386,3.347-30.217,13.467-30.217C175.227,1.341,178.579,17.173,178.579,31.558 M142.09,31.586
		c0,19.018,9.032,31.31,23.017,31.31c13.99,0,23.026-12.291,23.026-31.31c0-18.431-9.463-31.301-23.026-31.301
		C151.562,0.285,142.09,13.155,142.09,31.586"/>
	<path d="M37.11,46.711h-1.063v1.056c0,6.823-4.934,12.999-15.733,12.999h-6.86V2.416h3.428V1.341h-3.428H4.428H1v1.074h3.428
		v58.349H1v1.07h3.428h9.027h22.592h1.063v-1.07V46.711z"/>
	<path d="M110.853,2.411c7.333,0,13.086,7.333,13.086,16.364c0,2.948-0.624,5.744-1.685,8.132c-2.557-1.075-5.368-1.671-8.297-1.671
		c-4.394,0-7.016,2.374-7.016,5.298c0,2.916,2.585,5.203,6.419,5.203c3.366,0,6.589-0.951,9.376-2.59
		c1.414,2.654,2.264,5.965,2.264,9.665c0,9.913-6.139,17.953-14.147,17.953h-7.346V2.411H110.853z M113.103,34.318
		c-3.104,0-5.078-1.653-5.078-3.784c0-2.263,2.062-3.898,5.267-3.898c2.686,0,5.193,1.231,7.19,3.347
		C118.522,32.656,115.904,34.318,113.103,34.318 M91.052,61.835h3.423l19.739,0.004c11.654,0,19.813-8.072,19.813-18.026
		c0-5.726-2.75-10.717-7.002-14.087c3.003-3.196,4.867-7.388,4.867-11.902c0-9.1-7.411-16.483-18.146-16.483H94.475h-3.423v1.07
		h3.423v58.354h-3.423V61.835z"/>
	<path d="M83.626,43.115l-1.061-0.193c-2.257,11.621-7.962,17.843-14.943,17.843c-9.071,0-16.429-13.302-16.429-29.712
		c0-16.401,5.976-29.519,14.633-29.519c7.96,0,13.118,9.16,14.604,21.746h1.058V1.341H80.43v1.065c0,1.07-0.932,2.351-2.44,2.351
		c-1.022,0-2.087-0.441-3.997-1.589C71.04,1.318,67.743,0.29,64.27,0.29c-12.794,0-22.634,14.004-22.634,31.273
		c0,17.273,9.84,31.278,22.634,31.278C76.391,62.84,81.651,53.474,83.626,43.115"/>
</g>
</svg>
